<svg width="1218" height="378" viewBox="0 0 1218 378" fill="none" xmlns="http://www.w3.org/2000/svg">
  <g clip-path="url(#clip0_1_9)">
    <path d="M42 105.213L63.2132 84L84.4264 105.213L63.2132 126.426L42 105.213Z" fill="#C00754"/>
    <path d="M0 147.213L21.2132 126L42.4264 147.213L21.2132 168.426L0 147.213Z" fill="#C00754"/>
    <path d="M0 189.213L21.2132 168L42.4264 189.213L21.2132 210.426L0 189.213Z" fill="#C00754"/>
    <path d="M0 231.213L21.2132 210L42.4264 231.213L21.2132 252.426L0 231.213Z" fill="#C00754"/>
    <path d="M42 273.213L63.2132 252L84.4264 273.213L63.2132 294.426L42 273.213Z" fill="#C00754"/>
    <path d="M84 273.213L105.213 252L126.426 273.213L105.213 294.426L84 273.213Z" fill="#C00754"/>
    <path d="M126 273.213L147.213 252L168.426 273.213L147.213 294.426L126 273.213Z" fill="#C00754"/>
    <path d="M168 231.213L189.213 210L210.426 231.213L189.213 252.426L168 231.213Z" fill="#C00754"/>
    <path d="M252 105.213L273.213 84L294.426 105.213L273.213 126.426L252 105.213Z" fill="#C00754"/>
    <path d="M252 147.213L273.213 126L294.426 147.213L273.213 168.426L252 147.213Z" fill="#C00754"/>
    <path d="M294 189.213L315.213 168L336.426 189.213L315.213 210.426L294 189.213Z" fill="#C00754"/>
    <path d="M294 231.213L315.213 210L336.426 231.213L315.213 252.426L294 231.213Z" fill="#C00754"/>
    <path d="M336 273.213L357.213 252L378.426 273.213L357.213 294.426L336 273.213Z" fill="#C00754"/>
    <path d="M378 231.213L399.213 210L420.426 231.213L399.213 252.426L378 231.213Z" fill="#C00754"/>
    <path d="M378 189.213L399.213 168L420.426 189.213L399.213 210.426L378 189.213Z" fill="#C00754"/>
    <path d="M420 147.213L441.213 126L462.426 147.213L441.213 168.426L420 147.213Z" fill="#C00754"/>
    <path d="M420 105.213L441.213 84L462.426 105.213L441.213 126.426L420 105.213Z" fill="#C00754"/>
    <path d="M504 105.213L525.213 84L546.426 105.213L525.213 126.426L504 105.213Z" fill="#C00754"/>
    <path d="M504 147.213L525.213 126L546.426 147.213L525.213 168.426L504 147.213Z" fill="#C00754"/>
    <path d="M504 189.213L525.213 168L546.426 189.213L525.213 210.426L504 189.213Z" fill="#C00754"/>
    <path d="M504 231.213L525.213 210L546.426 231.213L525.213 252.426L504 231.213Z" fill="#C00754"/>
    <path d="M504 273.213L525.213 252L546.426 273.213L525.213 294.426L504 273.213Z" fill="#C00754"/>
    <path d="M546 273.213L567.213 252L588.426 273.213L567.213 294.426L546 273.213Z" fill="#C00754"/>
    <path d="M588 273.213L609.213 252L630.426 273.213L609.213 294.426L588 273.213Z" fill="#C00754"/>
    <path d="M630 273.213L651.213 252L672.426 273.213L651.213 294.426L630 273.213Z" fill="#C00754"/>
    <path d="M672 231.213L693.213 210L714.426 231.213L693.213 252.426L672 231.213Z" fill="#C00754"/>
    <path d="M672 189.213L693.213 168L714.426 189.213L693.213 210.426L672 189.213Z" fill="#C00754"/>
    <path d="M672 147.213L693.213 126L714.426 147.213L693.213 168.426L672 147.213Z" fill="#C00754"/>
    <path d="M756 105.213L777.213 84L798.426 105.213L777.213 126.426L756 105.213Z" fill="#C00754"/>
    <path d="M756 147.213L777.213 126L798.426 147.213L777.213 168.426L756 147.213Z" fill="#C00754"/>
    <path d="M756 189.213L777.213 168L798.426 189.213L777.213 210.426L756 189.213Z" fill="#C00754"/>
    <path d="M756 231.213L777.213 210L798.426 231.213L777.213 252.426L756 231.213Z" fill="#C00754"/>
    <path d="M798 273.213L819.213 252L840.426 273.213L819.213 294.426L798 273.213Z" fill="#C00754"/>
    <path d="M840 273.213L861.213 252L882.426 273.213L861.213 294.426L840 273.213Z" fill="#C00754"/>
    <path d="M882 231.213L903.213 210L924.426 231.213L903.213 252.426L882 231.213Z" fill="#C00754"/>
    <path d="M924 231.213L945.213 210L966.426 231.213L945.213 252.426L924 231.213Z" fill="#C00754"/>
    <path d="M924 189.213L945.213 168L966.426 189.213L945.213 210.426L924 189.213Z" fill="#C00754"/>
    <path d="M924 147.213L945.213 126L966.426 147.213L945.213 168.426L924 147.213Z" fill="#C00754"/>
    <path d="M924 105.213L945.213 84L966.426 105.213L945.213 126.426L924 105.213Z" fill="#C00754"/>
    <path d="M924 273.213L945.213 252L966.426 273.213L945.213 294.426L924 273.213Z" fill="#C00754"/>
    <path d="M630 105.213L651.213 84L672.426 105.213L651.213 126.426L630 105.213Z" fill="#C00754"/>
    <path d="M588 105.213L609.213 84L630.426 105.213L609.213 126.426L588 105.213Z" fill="#C00754"/>
    <path d="M546 147.213L567.213 126L588.426 147.213L567.213 168.426L546 147.213Z" fill="#C00754"/>
    <path d="M504 63.2132L525.213 42L546.426 63.2132L525.213 84.4264L504 63.2132Z" fill="#C00754"/>
    <path d="M504 21.2132L525.213 -7.90397e-06L546.426 21.2132L525.213 42.4264L504 21.2132Z" fill="#C00754"/>
    <path d="M336 315.213L357.213 294L378.426 315.213L357.213 336.426L336 315.213Z" fill="#C00754"/>
    <path d="M294 357.213L315.213 336L336.426 357.213L315.213 378.426L294 357.213Z" fill="#C00754"/>
    <path d="M252 357.213L273.213 336L294.426 357.213L273.213 378.426L252 357.213Z" fill="#C00754"/>
    <path d="M1008 105.213L1029.21 84L1050.43 105.213L1029.21 126.426L1008 105.213Z" fill="#C00754"/>
    <path d="M1008 147.213L1029.21 126L1050.43 147.213L1029.21 168.426L1008 147.213Z" fill="#C00754"/>
    <path d="M1050 189.213L1071.21 168L1092.43 189.213L1071.21 210.426L1050 189.213Z" fill="#C00754"/>
    <path d="M1050 231.213L1071.21 210L1092.43 231.213L1071.21 252.426L1050 231.213Z" fill="#C00754"/>
    <path d="M1092 273.213L1113.21 252L1134.43 273.213L1113.21 294.426L1092 273.213Z" fill="#C00754"/>
    <path d="M1134 231.213L1155.21 210L1176.43 231.213L1155.21 252.426L1134 231.213Z" fill="#C00754"/>
    <path d="M1134 189.213L1155.21 168L1176.43 189.213L1155.21 210.426L1134 189.213Z" fill="#C00754"/>
    <path d="M1176 147.213L1197.21 126L1218.43 147.213L1197.21 168.426L1176 147.213Z" fill="#C00754"/>
    <path d="M1176 105.213L1197.21 84L1218.43 105.213L1197.21 126.426L1176 105.213Z" fill="#C00754"/>
    <path d="M1092 315.213L1113.21 294L1134.43 315.213L1113.21 336.426L1092 315.213Z" fill="#C00754"/>
    <path d="M1050 357.213L1071.21 336L1092.43 357.213L1071.21 378.426L1050 357.213Z" fill="#C00754"/>
    <path d="M1008 357.213L1029.21 336L1050.43 357.213L1029.21 378.426L1008 357.213Z" fill="#C00754"/>
    <path d="M84 105.213L105.213 84L126.426 105.213L105.213 126.426L84 105.213Z" fill="#C00754"/>
    <path d="M126 105.213L147.213 84L168.426 105.213L147.213 126.426L126 105.213Z" fill="#C00754"/>
    <path d="M168 147.213L189.213 126L210.426 147.213L189.213 168.426L168 147.213Z" fill="#C00754"/>
  </g>
  <defs>
    <clipPath id="clip0_1_9">
      <rect width="1218" height="378" fill="white"/>
    </clipPath>
  </defs>
</svg>
